<svg width="24" height="24" viewBox="0 0 24 24" fill="none" xmlns="http://www.w3.org/2000/svg">
<mask id="mask0_1826_20088" style="mask-type:alpha" maskUnits="userSpaceOnUse" x="0" y="0" width="24" height="25">
<rect y="0.00195312" width="24" height="24" fill="#D9D9D9"/>
</mask>
<g mask="url(#mask0_1826_20088)">
<path d="M2 24.002V20.002H22V24.002H2ZM6 16.002H7.4L15.2 8.22695L13.775 6.80195L6 14.602V16.002ZM4 18.002V13.752L15.2 2.57695C15.3833 2.39362 15.5958 2.25195 15.8375 2.15195C16.0792 2.05195 16.3333 2.00195 16.6 2.00195C16.8667 2.00195 17.125 2.05195 17.375 2.15195C17.625 2.25195 17.85 2.40195 18.05 2.60195L19.425 4.00195C19.625 4.18529 19.7708 4.40195 19.8625 4.65195C19.9542 4.90195 20 5.16029 20 5.42695C20 5.67695 19.9542 5.92279 19.8625 6.16445C19.7708 6.40612 19.625 6.62695 19.425 6.82695L8.25 18.002H4Z" fill="#1C1B1F"/>
</g>
</svg>
