<svg width="163" height="35" viewBox="0 0 163 35" fill="none" xmlns="http://www.w3.org/2000/svg">
<path d="M8.25 26.852C4.825 26.852 2.1 25.402 0.325 22.402L3.025 20.277C4 23.102 6.225 24.352 8.325 24.352C9.95 24.352 11.25 23.427 11.25 21.927C11.25 18.127 1.2 19.402 1.2 13.152C1.2 10.202 3.85 8.27695 7.125 8.27695C9.85 8.27695 12.7 9.27695 14.475 12.202L11.8 14.202C11.05 12.077 9.3 10.777 7.175 10.777C5.7 10.777 4.625 11.552 4.625 12.802C4.625 16.602 14.675 15.177 14.675 21.502C14.675 25.002 11.7 26.852 8.25 26.852ZM27.4844 26.852C25.8344 26.852 24.7844 25.827 24.7844 23.902V23.777C23.9844 25.552 22.4594 26.852 20.1594 26.852C17.6594 26.852 16.1344 25.352 16.1344 23.202C16.1344 20.102 19.2594 18.177 24.7844 17.627V17.502C24.7844 15.877 24.0844 14.802 22.5344 14.802C20.8094 14.802 19.2844 15.802 18.3094 17.777L16.1344 16.102C17.8094 13.727 20.1844 12.552 22.8094 12.552C26.4094 12.552 27.8344 14.527 27.8344 17.402V23.902C27.8344 24.502 28.0344 24.752 28.5344 24.752C28.8594 24.752 29.1094 24.702 29.5094 24.502L29.1344 26.502C28.6844 26.702 28.0844 26.852 27.4844 26.852ZM19.3094 22.752C19.3094 23.752 20.0094 24.377 21.0844 24.377C22.9094 24.377 24.7844 22.877 24.7844 20.252V19.727C21.5594 20.052 19.3094 20.902 19.3094 22.752ZM31.2201 26.502V12.902H34.2701V16.127C35.1201 14.027 36.5201 12.552 37.9201 12.552C38.7201 12.552 39.2951 12.802 39.8451 13.352L38.6201 16.102C38.0951 15.627 37.6701 15.402 37.0201 15.402C35.7701 15.402 34.2701 17.052 34.2701 19.802V23.602C34.2701 24.752 34.2951 25.627 34.3951 26.502H31.2201ZM45.873 26.852C42.373 26.852 40.048 24.002 40.048 19.702C40.048 15.452 42.423 12.552 45.923 12.552C47.698 12.552 49.298 13.677 50.173 15.377V8.62695H53.198V23.252C53.198 24.302 53.248 25.402 53.348 26.502H50.173V23.952C49.298 25.727 47.698 26.852 45.873 26.852ZM43.248 19.702C43.248 22.502 44.648 24.377 46.723 24.377C48.648 24.377 50.173 22.502 50.173 20.252V19.052C50.173 16.827 48.598 15.027 46.723 15.027C44.648 15.027 43.248 16.902 43.248 19.702ZM56.183 26.502V12.902H59.208V23.252C59.208 24.302 59.258 25.402 59.358 26.502H56.183ZM56.058 11.127V8.22695H59.283V11.127H56.058ZM63.5697 31.727C62.7197 31.727 61.7197 31.477 61.0447 31.127L61.5947 28.602C62.1697 29.077 62.7447 29.352 63.4697 29.352C64.5197 29.352 65.0947 28.752 65.5197 27.602L66.0447 26.277L60.8947 12.902H64.1697L66.7197 19.652C67.2947 21.152 67.4697 22.577 67.4697 22.577C67.4697 22.577 68.0697 21.177 68.6697 19.702L70.3697 15.327C70.7197 14.402 70.8697 13.827 71.0447 12.902H73.9447L68.0447 28.102C67.0697 30.577 65.7697 31.727 63.5697 31.727ZM85.8389 26.852C84.1889 26.852 83.1389 25.827 83.1389 23.902V23.777C82.3389 25.552 80.8139 26.852 78.5139 26.852C76.0139 26.852 74.4889 25.352 74.4889 23.202C74.4889 20.102 77.6139 18.177 83.1389 17.627V17.502C83.1389 15.877 82.4389 14.802 80.8889 14.802C79.1639 14.802 77.6389 15.802 76.6639 17.777L74.4889 16.102C76.1639 13.727 78.5389 12.552 81.1639 12.552C84.7639 12.552 86.1889 14.527 86.1889 17.402V23.902C86.1889 24.502 86.3889 24.752 86.8889 24.752C87.2139 24.752 87.4639 24.702 87.8639 24.502L87.4889 26.502C87.0389 26.702 86.4389 26.852 85.8389 26.852ZM77.6639 22.752C77.6639 23.752 78.3639 24.377 79.4389 24.377C81.2639 24.377 83.1389 22.877 83.1389 20.252V19.727C79.9139 20.052 77.6639 20.902 77.6639 22.752Z" fill="white"/>
<path d="M143.124 19.621L142.409 25.2878C140.835 25.2402 139.928 25.2878 138.497 26.3831C136.732 27.7164 137.734 29.0974 137.114 31.0975C136.827 32.0023 135.683 33.288 133.727 33.4309C130.149 33.669 124.186 34.0023 120.703 35.0023L122.277 28.7641C126.237 28.7641 131.628 27.9069 134.776 27.4307C136.493 27.1926 137.591 25.6211 138.068 24.4783C138.688 22.9544 139.07 19.24 143.124 19.621Z" fill="white"/>
<path d="M143.128 19.6208C146.419 19.9541 148.423 19.8589 153.575 19.3827C158.059 18.9541 158.775 18.8112 161.256 18.1445L162.067 18.5731L158.441 25.4304H157.582L158.25 23.478C155.245 24.3352 155.865 24.4304 151.667 24.9066C147.469 25.3828 145.561 25.5257 142.078 25.3352L143.128 19.6208Z" fill="white"/>
<path d="M112.312 31.1909L115.556 28.4766L115.986 28.5242L118.705 31.8576L115.461 34.5243L115.032 34.4767L112.312 31.1909Z" fill="white"/>
<path d="M107.586 31.1909L110.878 28.4766L111.259 28.5242L113.978 31.8576L110.734 34.5243L110.305 34.4767L107.586 31.1909Z" fill="white"/>
<path d="M132.586 10.8594C132.776 10.9546 133.015 11.6689 133.11 11.8594C134.017 13.6213 134.446 15.5738 134.446 17.5262C134.398 21.812 132.824 24.4311 128.626 25.1454C126.718 25.4788 124.857 25.4312 122.949 25.4312L124.333 20.0977C128.769 20.0501 131.87 20.1929 133.397 19.0977C133.063 17.7167 130.725 16.9548 129.294 14.8595L131.727 10.907C131.727 10.8594 132.586 10.8594 132.586 10.8594Z" fill="white"/>
<path d="M119.849 12.2388C119.754 12.0484 119.563 11.3341 119.372 11.2388L118.514 11.1912L115.89 14.9056C117.225 17.0961 119.468 18.0485 119.706 19.4771C118.466 20.239 115.747 20.4295 113.457 20.0486C111.215 19.6676 110.308 18.6676 110.117 16.5247L109.259 8.3816L108.162 8.33398L107.637 11.4769L105.347 12.9055C103.391 14.0008 102.008 15.0484 101.244 16.0008C100.481 16.9533 100.052 18.4771 100.004 19.62C99.9563 20.9057 100.338 21.9058 101.149 22.6677C101.96 23.4296 103.057 23.8106 104.536 23.8582C105.633 23.9058 106.683 23.6677 107.684 23.1915C107.828 22.7153 108.018 21.8105 108.114 21.3819C108.257 20.9533 108.352 20.5248 108.448 20.0962L108.543 19.1438C108.591 20.4295 108.782 22.1915 109.64 23.6201C110.404 24.9058 111.501 25.8106 114.649 25.6201C120.088 25.2868 120.613 22.2391 120.899 18.0009C120.994 16.0008 120.66 14.0008 119.849 12.2388ZM104.679 18.0009C103.725 17.9533 103.009 17.8104 102.437 17.6199C101.626 17.3818 102.389 16.4294 104.059 15.7627L107.684 14.3818L108.305 17.4771C107.255 17.858 106.063 18.0485 104.679 18.0009Z" fill="white"/>
<path d="M107.688 2.71435L110.979 0L111.361 0.0476195L114.08 3.38104L110.836 6.09539L110.407 6.04777L107.688 2.71435Z" fill="white"/>
<path d="M102.957 2.71435L106.249 0L106.678 0.0476195L109.397 3.38104L106.106 6.09539L105.724 6.04777L102.957 2.71435Z" fill="white"/>
<path d="M121.47 8.09712C120.993 8.09712 120.516 8.00187 120.182 7.76377C120.087 7.71615 119.992 7.62091 119.896 7.52567C119.419 7.85901 118.513 7.81139 118.083 7.71615C117.415 7.62091 116.604 7.38281 116.461 6.71613C116.366 6.28755 116.318 5.09704 117.129 3.76367L117.94 4.2875C117.272 5.33514 117.32 6.19231 117.368 6.52565C117.654 6.76375 118.847 6.90661 119.228 6.76375C119.324 6.52565 119.419 6.09707 119.562 5.478C119.562 5.38276 119.61 5.33514 119.61 5.2399L120.564 5.38276C120.564 5.43038 120.564 5.478 120.516 5.52562C120.373 6.57327 120.564 6.85899 120.659 6.90661C121.136 7.19233 122.138 7.04947 122.329 6.90661C122.663 6.28755 122.711 5.0018 122.329 4.47798L123.092 3.90653C123.713 4.7637 123.617 6.43041 123.14 7.33519C122.997 7.57329 122.711 7.76377 122.281 7.90663C122.091 8.04949 121.804 8.09712 121.47 8.09712Z" fill="white"/>
<path d="M149.492 12.283L140.676 13.9258L140.851 14.862L149.667 13.2192L149.492 12.283Z" fill="white"/>
</svg>
