<svg width="452" height="97" viewBox="0 0 452 97" fill="none" xmlns="http://www.w3.org/2000/svg">
<path d="M78.5266 13.561L80.9666 16.041V16.681L78.5266 19.121L76.0466 16.681V16.041L78.5266 13.561ZM83.4066 13.561L85.8866 16.041V16.681L83.4066 19.121L80.9666 16.681V16.041L83.4066 13.561ZM92.9078 40.001C91.1478 40.001 89.8545 39.601 89.0278 38.801C88.2011 37.9743 87.6278 36.561 87.3078 34.561L85.4278 22.681L87.2278 19.761L87.6678 19.921L88.5878 29.281C88.6945 30.3743 88.9211 31.2143 89.2678 31.801C89.6411 32.361 90.1078 32.7476 90.6678 32.961C91.2545 33.1743 92.0011 33.281 92.9078 33.281C93.1478 33.281 93.3345 33.3743 93.4678 33.561C93.6278 33.721 93.7078 33.961 93.7078 34.281V39.121C93.7078 39.3876 93.6278 39.601 93.4678 39.761C93.3345 39.921 93.1478 40.001 92.9078 40.001ZM86.0678 37.081C84.5211 37.2143 83.1478 37.2676 81.9478 37.241C80.7478 37.1876 79.3478 37.0276 77.7478 36.761L76.4278 32.041C78.2678 29.6143 81.5345 26.8943 86.2278 23.881L86.3878 24.761C84.9211 25.721 83.4411 26.8276 81.9478 28.081C80.4545 29.3076 79.0145 30.6143 77.6278 32.001V31.081C79.0411 31.481 80.7745 31.681 82.8278 31.681C83.7078 31.681 84.5345 31.601 85.3078 31.441C86.1078 31.2543 86.9211 31.001 87.7478 30.681L87.7878 32.041L86.0678 37.081ZM94.8078 44.001L97.2478 46.481V47.121L94.8078 49.561L92.3278 47.121V46.481L94.8078 44.001ZM99.6878 44.001L102.168 46.481V47.121L99.6878 49.561L97.2478 47.121V46.481L99.6878 44.001ZM93.3906 40.001C92.8573 40.001 92.5906 39.7876 92.5906 39.361V33.961C92.5906 33.5076 92.8573 33.281 93.3906 33.281C95.0973 33.281 96.804 33.1743 98.5106 32.961C100.217 32.7476 101.537 32.4543 102.471 32.081L102.551 33.361L99.1106 27.081L101.311 23.881L101.711 24.041C102.084 25.3476 102.377 26.6143 102.591 27.841C102.831 29.0676 103.044 30.441 103.231 31.961L100.871 38.801C99.7773 39.2276 98.6306 39.5343 97.4306 39.721C96.2573 39.9076 94.9106 40.001 93.3906 40.001ZM115.68 40.001C114.32 40.001 113.134 39.6943 112.12 39.081C111.107 38.441 110.32 37.5876 109.76 36.521C109.2 35.4543 108.88 34.2543 108.8 32.921L107.8 15.481L110 12.081L110.48 12.201V32.321C111.334 32.641 112.2 32.881 113.08 33.041C113.96 33.201 114.84 33.281 115.72 33.281C116.227 33.281 116.48 33.561 116.48 34.121V39.201C116.48 39.4676 116.414 39.6676 116.28 39.801C116.174 39.9343 115.974 40.001 115.68 40.001ZM165.602 40.001C164.695 40.001 163.815 39.841 162.962 39.521C162.109 39.201 161.122 38.6543 160.002 37.881L161.642 33.041C162.442 33.121 163.109 33.1876 163.642 33.241C164.202 33.2676 164.855 33.281 165.602 33.281C166.135 33.281 166.402 33.561 166.402 34.121V39.201C166.402 39.7343 166.135 40.001 165.602 40.001ZM159.922 40.521C157.255 40.3076 154.255 40.161 150.922 40.081C147.589 40.0276 142.909 40.001 136.882 40.001H115.922C115.389 40.001 115.122 39.7343 115.122 39.201V33.881C115.122 33.6676 115.202 33.521 115.362 33.441C115.495 33.3343 115.682 33.281 115.922 33.281H148.082C150.855 33.281 153.335 33.361 155.522 33.521C157.709 33.681 159.629 33.9476 161.282 34.321L161.002 35.601C161.029 33.5476 160.469 31.9343 159.322 30.761C158.202 29.561 156.655 28.961 154.682 28.961L119.522 28.881L118.682 26.841C119.109 25.0543 119.909 23.5343 121.082 22.281C122.255 21.0276 123.922 19.7476 126.082 18.441C128.269 17.1076 131.749 15.1743 136.522 12.641L136.802 12.961L135.042 17.361C132.242 18.401 129.455 19.641 126.682 21.081C123.909 22.521 121.522 24.0276 119.522 25.601L120.242 24.361H153.162C155.055 24.361 156.682 24.8543 158.042 25.841C159.402 26.8276 160.415 28.1076 161.082 29.681C161.775 31.2276 162.122 32.8276 162.122 34.481L159.922 40.521ZM195.696 40.001C192.122 40.001 189.469 39.081 187.736 37.241C186.002 35.401 185.136 32.9743 185.136 29.961L186.096 29.801C186.096 30.3876 186.509 30.9476 187.336 31.481C188.189 32.0143 189.362 32.4543 190.856 32.801C192.349 33.121 193.976 33.281 195.736 33.281C196.242 33.281 196.496 33.561 196.496 34.121V39.201C196.496 39.4676 196.429 39.6676 196.296 39.801C196.189 39.9343 195.989 40.001 195.696 40.001ZM167.376 29.481L170.416 22.921L170.976 22.681L182.776 26.841C184.322 27.401 185.656 27.7876 186.776 28.001C187.896 28.1876 188.962 28.1876 189.976 28.001C190.989 27.7876 191.962 27.321 192.896 26.601L193.256 26.801L191.496 29.721C190.616 31.1876 189.149 32.001 187.096 32.161C185.069 32.2943 182.509 31.7876 179.416 30.641L169.256 26.961L167.976 29.761H167.616L167.376 29.481ZM166.056 40.001C165.522 40.001 165.256 39.7343 165.256 39.201L165.216 34.041C165.216 33.7743 165.282 33.5876 165.416 33.481C165.522 33.3476 165.722 33.281 166.016 33.281C168.229 33.281 170.389 33.041 172.496 32.561C174.629 32.0543 177.109 31.3343 179.936 30.401C181.882 29.8143 183.442 29.361 184.616 29.041C185.789 28.721 186.856 28.5343 187.816 28.481L189.016 31.281C187.736 31.6543 186.562 32.121 185.496 32.681C184.429 33.241 183.122 34.001 181.576 34.961C179.789 36.081 178.242 36.9743 176.936 37.641C175.656 38.3076 174.096 38.8676 172.256 39.321C170.442 39.7743 168.376 40.001 166.056 40.001ZM195.914 40.001C195.621 40.001 195.421 39.9343 195.314 39.801C195.181 39.6676 195.114 39.4676 195.114 39.201V34.121C195.114 33.561 195.367 33.281 195.874 33.281C197.207 33.281 198.554 33.1743 199.914 32.961C201.274 32.721 202.247 32.3876 202.834 31.961L202.114 34.921L201.034 15.841L203.114 12.481L203.634 12.681L204.594 20.081L203.834 20.681L203.794 33.561L201.154 39.281C200.167 39.5476 199.274 39.7343 198.474 39.841C197.674 39.9476 196.821 40.001 195.914 40.001ZM210.661 40.001L209.621 15.841L211.661 12.481L212.181 12.681L213.141 20.081L212.381 20.721L212.101 34.841L210.981 40.001H210.661ZM239.906 15.881L241.986 12.481L242.506 12.681L242.706 39.121L240.866 41.521L239.906 15.881ZM247.746 40.001C246.573 40.001 245.506 39.681 244.546 39.041C243.586 38.3743 242.8 37.441 242.186 36.241C241.6 35.0143 241.266 33.561 241.186 31.881L242.506 30.161C242.613 30.8276 242.906 31.401 243.386 31.881C243.866 32.3343 244.466 32.681 245.186 32.921C245.906 33.161 246.76 33.281 247.746 33.281C248.013 33.281 248.213 33.3743 248.346 33.561C248.48 33.721 248.546 33.9876 248.546 34.361V39.041C248.546 39.681 248.28 40.001 247.746 40.001ZM230.746 48.761C228.613 48.761 226.8 48.3476 225.306 47.521C223.84 46.721 222.72 45.601 221.946 44.161C221.2 42.7476 220.826 41.121 220.826 39.281C220.826 37.921 221.146 36.5476 221.786 35.161C222.453 33.7476 223.24 32.5743 224.146 31.641L224.386 31.841C223.746 32.801 223.253 33.7343 222.906 34.641C222.586 35.521 222.426 36.3476 222.426 37.121C222.426 38.241 222.746 39.2143 223.386 40.041C224.053 40.8943 225.013 41.5476 226.266 42.001C227.52 42.4543 229.013 42.681 230.746 42.681C232.24 42.681 233.64 42.5343 234.946 42.241C236.28 41.9743 237.52 41.561 238.666 41.001C239.84 40.4676 240.946 39.801 241.986 39.001L242.706 39.121L241.186 44.721C239.853 45.921 238.253 46.8943 236.386 47.641C234.52 48.3876 232.64 48.761 230.746 48.761ZM264.048 40.001C262.581 40.001 261.181 39.8943 259.848 39.681C258.514 39.441 257.274 39.0543 256.128 38.521C254.981 37.9876 254.048 37.2543 253.328 36.321L255.608 28.601C255.821 29.8543 256.088 30.8276 256.408 31.521C256.754 32.1876 257.154 32.6543 257.608 32.921C258.061 33.161 258.621 33.281 259.288 33.281H266.808C269.128 33.281 271.434 33.1343 273.728 32.841C276.021 32.5476 277.808 32.1743 279.088 31.721C278.128 30.681 276.888 29.8676 275.368 29.281C273.848 28.6676 272.514 28.361 271.368 28.361C269.261 28.361 267.141 28.9476 265.008 30.121C262.874 31.2676 260.941 32.881 259.208 34.961L259.048 34.281C261.074 31.5076 262.848 29.3343 264.368 27.761C265.888 26.161 267.234 25.0276 268.408 24.361C269.581 23.6676 270.728 23.321 271.848 23.321C273.021 23.321 274.181 23.6143 275.328 24.201C276.474 24.761 277.501 25.5343 278.408 26.521C279.314 27.481 280.008 28.5343 280.488 29.681L278.128 37.841C276.661 38.5076 274.794 39.041 272.528 39.441C270.261 39.8143 267.434 40.001 264.048 40.001ZM248.008 40.001C247.474 40.001 247.208 39.801 247.208 39.401V33.961C247.208 33.5076 247.474 33.281 248.008 33.281H248.408C249.661 33.2543 250.768 33.2143 251.728 33.161C252.688 33.081 253.488 32.921 254.128 32.681L254.488 30.001L255.168 28.521L255.608 28.601L255.488 33.801C255.434 35.1876 255.114 36.3476 254.528 37.281C253.968 38.2143 253.141 38.9076 252.048 39.361C250.981 39.7876 249.634 40.001 248.008 40.001ZM283.413 9.36098L283.453 8.84098L286.013 5.84098V7.28098C284.919 6.98764 284.079 6.56098 283.493 6.00098C282.933 5.41431 282.653 4.69431 282.653 3.84098C282.653 3.04097 282.906 2.32097 283.413 1.68097C283.946 1.01431 284.599 0.680975 285.373 0.680975C286.039 0.680975 286.599 0.920976 287.053 1.40098C287.533 1.88098 287.866 2.58764 288.053 3.52097L287.733 3.92097C287.439 3.65431 287.106 3.46764 286.733 3.36097C286.386 3.22764 286.013 3.16097 285.613 3.16097C284.759 3.16097 284.079 3.46764 283.573 4.08097C284.026 4.42764 284.559 4.69431 285.173 4.88098C285.813 5.06764 286.493 5.16097 287.213 5.16097C287.693 5.16097 288.146 5.09431 288.573 4.96098C289.026 4.82764 289.533 4.56098 290.093 4.16098L290.373 4.40098L289.373 7.16098L283.773 10.121L283.413 9.36098ZM286.051 40.001L285.011 15.841L287.051 12.481L287.571 12.681L288.531 20.081L287.771 20.721L287.491 34.841L286.371 40.001H286.051ZM323.691 9.52097L326.251 12.041V12.721L323.691 15.281L321.131 12.721V12.041L323.691 9.52097ZM306.507 40.041C304.267 40.041 302.4 39.7076 300.907 39.041C299.414 38.3476 298.294 37.3876 297.547 36.161C296.827 34.9343 296.467 33.481 296.467 31.801C296.467 30.8143 296.64 29.8143 296.987 28.801C297.334 27.7876 297.854 26.8143 298.547 25.881L298.827 26.041C298.56 26.6276 298.36 27.2543 298.227 27.921C298.094 28.5876 298.027 29.1876 298.027 29.721C298.027 30.8676 298.52 31.7343 299.507 32.321C300.52 32.9076 302.16 33.2543 304.427 33.361C304.747 33.3876 305.254 33.401 305.947 33.401C309.76 33.401 314.294 33.3343 319.547 33.201C324.827 33.041 328.427 32.881 330.347 32.721C330.134 30.961 329.654 29.3343 328.907 27.841C328.16 26.3476 327.267 25.1743 326.227 24.321C325.214 23.441 324.2 23.001 323.187 23.001C322.6 22.9743 322.027 23.0943 321.467 23.361C320.907 23.6276 320.36 24.0676 319.827 24.681C319.294 25.2943 318.827 26.0943 318.427 27.081L318.627 26.361C319.96 26.7343 321.587 26.9743 323.507 27.081C325.454 27.161 327.334 27.0676 329.147 26.801L329.907 29.081C328.627 30.2543 327.027 30.9476 325.107 31.161C323.214 31.3476 321.254 31.121 319.227 30.481L317.987 26.921C318.574 24.4676 319.387 22.4676 320.427 20.921C321.494 19.3743 322.667 18.601 323.947 18.601C325.147 18.601 326.28 19.201 327.347 20.401C328.44 21.5743 329.347 23.2143 330.067 25.321C330.787 27.401 331.254 29.7343 331.467 32.321L329.427 38.881C326.654 39.2276 323.267 39.5076 319.267 39.721C315.267 39.9343 311.014 40.041 306.507 40.041ZM326.945 42.961V42.481L327.105 42.401C329.052 43.5743 330.905 44.161 332.665 44.161C334.238 44.161 335.772 43.7743 337.265 43.001C338.758 42.2276 340.052 41.161 341.145 39.801C342.265 38.4143 343.038 36.8543 343.465 35.121L343.625 37.041L339.305 29.241L341.185 25.241L341.585 25.441L342.825 29.281C343.145 30.1876 343.478 30.921 343.825 31.481C344.198 32.041 344.718 32.481 345.385 32.801C346.052 33.121 346.932 33.281 348.025 33.281C348.292 33.281 348.492 33.3743 348.625 33.561C348.758 33.721 348.825 33.9876 348.825 34.361V39.041C348.825 39.681 348.558 40.001 348.025 40.001C347.172 40.001 346.318 39.7076 345.465 39.121C344.638 38.5076 344.052 37.5876 343.705 36.361L344.905 36.001C344.905 38.3476 344.438 40.4676 343.505 42.361C342.572 44.2543 341.345 45.7743 339.825 46.921C338.305 48.0943 336.692 48.8276 334.985 49.121L326.945 42.961ZM348.352 40.001C348.138 40.001 347.952 39.9476 347.792 39.841C347.632 39.7343 347.552 39.5876 347.552 39.401V33.961C347.552 33.7476 347.632 33.5876 347.792 33.481C347.925 33.3476 348.112 33.281 348.352 33.281H354.472L354.432 35.721C353.205 34.841 352.258 33.8676 351.592 32.801C350.952 31.7343 350.632 30.5876 350.632 29.361C350.632 28.3743 350.952 27.3743 351.592 26.361C352.258 25.3476 353.098 24.521 354.112 23.881C355.152 23.241 356.205 22.921 357.272 22.921C358.258 22.921 359.192 23.1476 360.072 23.601C360.952 24.0543 361.712 24.641 362.352 25.361C362.992 26.0543 363.458 26.7876 363.752 27.561L363.472 28.001C361.978 27.3876 360.485 27.0943 358.992 27.121C357.525 27.1476 356.112 27.441 354.752 28.001C353.392 28.561 352.125 29.321 350.952 30.281L350.992 29.561C352.005 30.681 353.298 31.5876 354.872 32.281C356.472 32.9476 357.925 33.281 359.232 33.281C360.485 33.281 361.658 33.1743 362.752 32.961C363.872 32.721 365.005 32.2943 366.152 31.681L366.832 32.201C366.058 34.1743 365.152 35.7343 364.112 36.881C363.072 38.001 361.778 38.801 360.232 39.281C358.712 39.761 356.752 40.001 354.352 40.001H348.352ZM369.941 51.361L369.981 50.841L372.541 47.841V49.281C371.448 48.9876 370.608 48.5476 370.021 47.961C369.461 47.401 369.181 46.6943 369.181 45.841C369.181 45.041 369.435 44.3076 369.941 43.641C370.475 43.001 371.128 42.681 371.901 42.681C372.568 42.681 373.128 42.921 373.581 43.401C374.061 43.881 374.395 44.5876 374.581 45.521L374.261 45.921C373.968 45.6543 373.635 45.4543 373.261 45.321C372.915 45.2143 372.541 45.161 372.141 45.161C371.288 45.161 370.608 45.4676 370.101 46.081C370.555 46.4276 371.088 46.6943 371.701 46.881C372.341 47.0676 373.021 47.161 373.741 47.161C374.221 47.161 374.675 47.0943 375.101 46.961C375.555 46.8276 376.061 46.561 376.621 46.161L376.901 46.401L375.901 49.161L370.301 52.121L369.941 51.361ZM371.981 40.001L370.941 15.841L372.981 12.481L373.501 12.681L374.461 20.081L373.701 20.721L373.421 34.841L372.301 40.001H371.981Z" fill="white"/>
<path d="M176.568 90.001C174.372 90.001 173.58 89.317 173.58 87.373V87.067H173.49C173.148 88.129 172.302 88.687 171.186 88.687C169.584 88.687 168.63 87.769 168.63 86.203C168.63 84.835 169.458 83.917 171.672 82.657L173.49 81.613V80.713H174.75V87.193C174.75 88.165 175.254 88.453 176.298 88.453H176.928V89.641L176.568 90.001ZM171.456 87.139C172.914 87.139 173.49 86.779 173.49 85.699V83.071L171.672 84.043C170.394 84.727 169.89 85.249 169.89 86.023C169.89 86.797 170.322 87.139 171.456 87.139ZM174.066 79.219C173.58 79.219 173.274 78.949 173.274 78.337C173.274 77.725 173.58 77.455 174.066 77.455H174.264C174.732 77.455 175.056 77.725 175.056 78.337C175.056 78.949 174.732 79.219 174.264 79.219H174.066ZM171.744 79.219C171.258 79.219 170.952 78.949 170.952 78.337C170.952 77.725 171.258 77.455 171.744 77.455H171.942C172.41 77.455 172.734 77.725 172.734 78.337C172.734 78.949 172.41 79.219 171.942 79.219H171.744ZM178.219 81.539C177.571 81.539 177.175 81.053 177.175 80.225V79.001H178.075V79.901C178.075 80.207 178.237 80.387 178.489 80.387C178.849 80.387 179.011 80.135 179.011 79.559V78.515H179.911V79.127C179.911 79.667 180.055 79.811 180.343 79.811C180.667 79.811 180.847 79.577 180.847 79.199C180.847 78.911 180.775 78.569 180.631 78.101L181.513 77.831C181.675 78.335 181.747 78.749 181.747 79.145C181.747 80.279 181.225 80.963 180.325 80.963C179.875 80.963 179.515 80.639 179.371 80.099H179.317C179.263 80.999 178.867 81.539 178.219 81.539ZM177.061 90.001V88.813L177.421 88.453H177.691C179.257 88.453 179.941 88.129 179.941 87.013C179.941 86.581 179.887 85.951 179.707 84.853L179.455 83.359L180.715 83.161L180.931 84.655C181.093 85.825 181.165 86.527 181.165 87.013C181.165 89.011 179.923 90.001 177.691 90.001H177.061ZM180.967 93.619C180.481 93.619 180.175 93.349 180.175 92.737C180.175 92.125 180.481 91.855 180.967 91.855H181.165C181.633 91.855 181.957 92.125 181.957 92.737C181.957 93.349 181.633 93.619 181.165 93.619H180.967ZM178.645 93.619C178.159 93.619 177.853 93.349 177.853 92.737C177.853 92.125 178.159 91.855 178.645 91.855H178.843C179.311 91.855 179.635 92.125 179.635 92.737C179.635 93.349 179.311 93.619 178.843 93.619H178.645ZM184.258 90.001C183.394 90.001 182.764 89.461 182.764 88.471V87.085H184.024V88.453H186.994C188.326 88.453 188.668 87.769 188.668 87.049C188.668 86.221 188.218 85.483 186.94 84.205L185.05 82.135L186.22 81.019L188.02 83.089C189.442 84.745 189.946 85.789 189.946 87.175C189.946 88.921 188.812 90.001 186.814 90.001H184.258ZM189.814 94.321V92.773H190.48C193.108 92.773 193.738 91.135 193.738 89.263C193.738 88.561 193.666 87.769 193.54 87.085L193.252 85.519L198.616 84.799V86.923C198.616 88.129 199.156 88.669 200.308 88.669C201.424 88.669 201.964 88.183 201.964 86.923V85.519H203.224V86.923C203.224 88.219 203.548 88.669 204.43 88.669H204.79C205.582 88.669 205.942 88.309 205.942 87.517C205.942 87.139 205.906 86.491 205.798 85.789L205.654 84.799L206.896 84.637L207.022 85.591C207.112 86.329 207.166 87.049 207.166 87.517C207.166 89.173 206.23 90.217 204.61 90.217C203.188 90.217 202.36 89.587 202.126 88.417H202.036C201.802 89.551 201.1 90.217 199.948 90.217C198.166 90.217 197.356 89.173 197.356 86.923V86.455L194.746 86.797C194.872 87.715 194.944 88.597 194.944 89.299C194.944 91.927 193.918 94.321 190.48 94.321H189.814ZM218.241 94.321C215.235 94.321 213.453 92.647 213.453 89.821C213.453 88.723 213.777 87.445 214.299 86.221L215.415 86.563C214.965 87.553 214.641 88.705 214.641 89.659C214.641 91.585 215.793 92.701 217.701 92.701H218.781C221.049 92.701 221.841 91.747 221.841 88.993V76.681H223.173V88.453H225.369V89.641L225.009 90.001H223.119C222.849 92.953 221.283 94.321 218.241 94.321ZM225.262 90.001V88.813L225.622 88.453H226.252C227.278 88.453 227.782 87.949 227.782 86.923V84.079H229.042V86.923C229.042 87.967 229.528 88.453 230.572 88.453H231.202V89.641L230.842 90.001C229.168 90.001 228.214 89.425 227.926 88.237H227.836C227.566 89.551 226.9 90.001 225.262 90.001ZM229.474 93.619C228.988 93.619 228.682 93.349 228.682 92.737C228.682 92.125 228.988 91.855 229.474 91.855H229.672C230.14 91.855 230.464 92.125 230.464 92.737C230.464 93.349 230.14 93.619 229.672 93.619H229.474ZM227.152 93.619C226.666 93.619 226.36 93.349 226.36 92.737C226.36 92.125 226.666 91.855 227.152 91.855H227.35C227.818 91.855 228.142 92.125 228.142 92.737C228.142 93.349 227.818 93.619 227.35 93.619H227.152ZM231.084 90.001V88.813L231.444 88.453H234.774L234.792 88.381L232.254 85.249V83.701C233.298 83.161 234.612 82.837 235.782 82.837C237.96 82.837 239.238 83.773 239.238 85.357C239.238 86.599 238.626 87.139 236.988 88.399L237.006 88.453H240.048V89.641L239.688 90.001H238.518C237.564 90.001 236.646 89.731 235.872 89.173C235.098 89.731 234.18 90.001 233.226 90.001H231.084ZM233.46 84.745V84.817L235.998 87.841L236.196 87.679C237.33 86.725 238.014 86.293 238.014 85.573C238.014 84.817 237.168 84.385 235.746 84.385C235.044 84.385 234.288 84.493 233.46 84.745ZM239.93 90.001V88.813L240.29 88.453H242.9L242.936 88.381C241.712 87.427 241.01 86.347 241.01 84.871C241.01 82.963 242.342 81.379 244.268 81.379C246.194 81.379 247.526 82.945 247.526 84.871C247.526 86.347 246.824 87.427 245.6 88.381L245.636 88.453H248.246V89.641L247.886 90.001H247.634C246.41 90.001 245.258 89.731 244.268 89.173C243.278 89.731 242.126 90.001 240.902 90.001H239.93ZM244.268 87.913C245.474 87.247 246.266 86.329 246.266 85.051C246.266 83.755 245.51 82.927 244.358 82.927H244.178C243.026 82.927 242.27 83.755 242.27 85.051C242.27 86.329 243.062 87.247 244.268 87.913ZM244.16 79.219C243.674 79.219 243.368 78.949 243.368 78.337C243.368 77.725 243.674 77.455 244.16 77.455H244.358C244.826 77.455 245.15 77.725 245.15 78.337C245.15 78.949 244.826 79.219 244.358 79.219H244.16ZM248.143 90.001V88.813L248.503 88.453H249.133C250.159 88.453 250.663 87.949 250.663 86.923V84.079H251.923V86.923C251.923 87.967 252.409 88.453 253.453 88.453H254.083V89.641L253.723 90.001C252.049 90.001 251.095 89.425 250.807 88.237H250.717C250.447 89.551 249.781 90.001 248.143 90.001ZM252.301 81.919C251.815 81.919 251.509 81.649 251.509 81.037C251.509 80.425 251.815 80.155 252.301 80.155H252.499C252.967 80.155 253.291 80.425 253.291 81.037C253.291 81.649 252.967 81.919 252.499 81.919H252.301ZM249.979 81.919C249.493 81.919 249.187 81.649 249.187 81.037C249.187 80.425 249.493 80.155 249.979 80.155H250.177C250.645 80.155 250.969 80.425 250.969 81.037C250.969 81.649 250.645 81.919 250.177 81.919H249.979ZM253.965 90.001V88.813L254.325 88.453H254.595C256.161 88.453 256.845 88.129 256.845 87.013C256.845 86.581 256.791 85.951 256.611 84.853L256.359 83.359L257.619 83.161L257.835 84.655C257.997 85.825 258.069 86.527 258.069 87.013C258.069 89.011 256.827 90.001 254.595 90.001H253.965ZM256.701 93.619C256.215 93.619 255.909 93.349 255.909 92.737C255.909 92.125 256.215 91.855 256.701 91.855H256.899C257.367 91.855 257.691 92.125 257.691 92.737C257.691 93.349 257.367 93.619 256.899 93.619H256.701ZM264.712 95.509V89.749C264.712 86.941 265.378 85.915 268.042 84.619L270.616 83.359H272.02L273.298 86.833C273.766 88.129 274.09 88.453 274.9 88.453H275.26V89.641L274.9 90.001C273.766 90.001 273.19 89.749 272.65 88.795L272.542 88.831V90.001H270.4C268.438 90.001 267.268 89.191 267.268 87.823C267.268 87.175 267.502 86.689 268.006 86.293L267.934 86.221L267.376 86.545C266.314 87.193 266.044 87.823 266.044 89.749V95.509H264.712ZM268.348 87.193C268.348 88.057 269.032 88.453 270.508 88.453H272.47C272.326 88.165 272.182 87.805 272.038 87.391L271.084 84.835L270.346 85.177C268.78 85.915 268.348 86.419 268.348 87.193ZM275.159 90.001V88.813L275.519 88.453H278.921C280.883 88.453 281.567 87.823 281.567 86.041V85.465H281.477C281.135 86.257 280.307 86.743 279.263 86.743C277.355 86.743 276.239 85.699 276.239 83.917C276.239 81.811 277.607 80.065 279.515 80.065C281.567 80.065 282.827 81.955 282.827 85.141C282.827 88.759 281.837 90.001 278.921 90.001H275.159ZM279.623 85.159C280.649 85.159 281.225 84.979 281.567 84.601C281.513 82.783 280.685 81.613 279.407 81.613C278.183 81.613 277.499 82.477 277.499 83.737C277.499 84.727 278.057 85.159 279.263 85.159H279.623ZM280.523 77.905C280.037 77.905 279.731 77.635 279.731 77.023C279.731 76.411 280.037 76.141 280.523 76.141H280.721C281.189 76.141 281.513 76.411 281.513 77.023C281.513 77.635 281.189 77.905 280.721 77.905H280.523ZM278.201 77.905C277.715 77.905 277.409 77.635 277.409 77.023C277.409 76.411 277.715 76.141 278.201 76.141H278.399C278.867 76.141 279.191 76.411 279.191 77.023C279.191 77.635 278.867 77.905 278.399 77.905H278.201Z" fill="white"/>
</svg>
